<?xml version="1.0" encoding="iso-8859-1"?>
<!-- Generator: Adobe Illustrator 16.0.0, SVG Export Plug-In . SVG Version: 6.00 Build 0)  -->
<!DOCTYPE svg PUBLIC "-//W3C//DTD SVG 1.1//EN" "http://www.w3.org/Graphics/SVG/1.1/DTD/svg11.dtd">
<svg version="1.1" id="Capa_1" xmlns="http://www.w3.org/2000/svg" xmlns:xlink="http://www.w3.org/1999/xlink" x="0px" y="0px"
	 width="540.588px" height="540.588px" viewBox="0 0 540.588 540.588" style="enable-background:new 0 0 540.588 540.588;"
	 xml:space="preserve">
<g>
	<g>
		<path d="M156.687,0c-20.225,0-36.682,16.457-36.682,36.682v467.215c0,20.225,16.457,36.691,36.682,36.691h227.215
			c20.225,0,36.682-16.467,36.682-36.691V36.682C420.583,16.457,404.126,0,383.901,0H156.687z M406.239,36.682v467.215
			c0,12.326-10.021,22.348-22.338,22.348H156.687c-12.316,0-22.338-10.021-22.338-22.348V36.682
			c0-12.307,10.021-22.338,22.338-22.338h227.215C396.218,14.344,406.239,24.375,406.239,36.682z"/>
		<path d="M148.53,63.237V473.41c0,1.98,1.606,3.586,3.586,3.586h236.356c1.98,0,3.586-1.605,3.586-3.586V63.237
			c0-1.979-1.605-3.586-3.586-3.586H152.116C150.136,59.651,148.53,61.257,148.53,63.237z M165.264,66.823h210.059
			c5.279,0,9.562,4.284,9.562,9.562v383.867c0,5.279-4.283,9.562-9.562,9.562H165.264c-5.279,0-9.562-4.283-9.562-9.562V76.385
			C155.702,71.107,159.985,66.823,165.264,66.823z"/>
		<path d="M250.131,37.81h40.325c1.98,0,3.586-1.606,3.586-3.586s-1.605-3.586-3.586-3.586h-40.325
			c-1.979,0-3.586,1.606-3.586,3.586S248.152,37.81,250.131,37.81z"/>
		<path d="M290.954,485.191h-41.311c-8.491,0-15.386,6.904-15.386,15.377v2.467c0,8.482,6.904,15.387,15.386,15.387h41.311
			c8.49,0,15.385-6.914,15.385-15.387v-2.467C306.339,492.096,299.435,485.191,290.954,485.191z M299.167,503.035
			c0,4.533-3.691,8.215-8.213,8.215h-41.311c-4.532,0-8.214-3.691-8.214-8.215v-2.467c0-4.523,3.691-8.205,8.214-8.205h41.311
			c4.531,0,8.213,3.691,8.213,8.205V503.035z"/>
		<path d="M190.987,256.007c0,20.454,14.812,39.053,38.508,49.303c4.848,2.096,8.004,7.518,6.484,12.576
			c-3.031,10.078-5.537,13.875-6.713,14.467c-2.266,1.129-2.142,2.812-1.979,3.49c0.162,0.68,0.812,2.238,3.404,2.238
			c4.169,0,28.191-5.088,40.908-17.279c3.816-3.652,10.041-7.812,15.252-8.635c35.076-5.527,61.334-28.43,62.684-56.027
			c0.562-11.982-3.979-23.418-13.148-33.058c-14.641-15.357-39.359-24.528-66.125-24.528
			C226.56,198.556,190.987,224.327,190.987,256.007z M273.101,309.643c-3.586,8.932-16.247,15.74-27.617,19.633
			c-5.001,1.711-7.191-1.205-5.508-6.217c1.443-4.283,2.868-9.504,4.274-15.643c0.315-1.387-0.507-2.783-1.865-3.176
			c-27.96-8.07-46.034-26.994-46.034-48.233c0-28.726,33.172-52.097,73.928-52.097c25.331,0,48.596,8.549,62.243,22.874
			c8.146,8.549,12.172,18.608,11.676,29.099c-1.34,27.836-30.887,50.223-68.736,52.088
			C274.411,308.018,273.483,308.668,273.101,309.643z"/>
		<path d="M246.21,264.441c-3.748,0-6.426,2.754-6.426,6.637c0,3.748,2.592,6.568,6.35,6.568c3.959,0,6.493-2.811,6.493-6.568
			C252.55,267.119,250.026,264.441,246.21,264.441z"/>
		<path d="M246.21,241.147c-3.748,0-6.426,2.745-6.426,6.636c0,3.749,2.592,6.56,6.35,6.56c3.959,0,6.493-2.812,6.493-6.56
			C252.55,243.815,250.026,241.147,246.21,241.147z"/>
		<path d="M277.565,235.467c-2.123,5.336-3.738,12.211-3.787,20.76c0,8.434,1.637,15.281,3.777,20.626
			c1.961,4.906,6.168,8.443,8.281,8.443s1.549-3.672-0.199-8.664c-1.971-5.612-3.262-12.392-3.262-20.406
			c0-8.119,1.281-14.956,3.242-20.56c1.74-4.982,2.332-8.654,0.219-8.654C283.714,227.014,279.507,230.552,277.565,235.467z"/>
	</g>
</g>
<g>
</g>
<g>
</g>
<g>
</g>
<g>
</g>
<g>
</g>
<g>
</g>
<g>
</g>
<g>
</g>
<g>
</g>
<g>
</g>
<g>
</g>
<g>
</g>
<g>
</g>
<g>
</g>
<g>
</g>
</svg>
